{"title":"Middle.Men.2009.LIMITED.720p.BRRip.x264.Feel-Free","uid":6139835,"size":2250916866,"categoryP":"video","categoryS":"hd___movies","magnet":"?xt=urn:btih:9a491c3690d684888b712ca0f6db47447cbc057e&amp;dn=Middle.Men.2009.LIMITED.720p.BRRip.x264.Feel-Free&amp;tr=udp%3A%2F%2Ftracker.openbittorrent.com%3A80&amp;tr=udp%3A%2F%2Fopen.demonii.com%3A1337&amp;tr=udp%3A%2F%2Ftracker.coppersurfer.tk%3A6969&amp;tr=udp%3A%2F%2Fexodus.desync.com%3A6969","seeders":0,"leechers":2,"uploader":".BONE.","files":10,"time":1296460561,"description":"Genre:Comedy | Crime | Drama\nLanguage:English\nIMDb:http://www.imdb.com/title/tt1251757/\nSource:1080p.BluRay.x264-SECTOR7\nSubtitles:Romana\n\n\nFormat : MPEG-4\nFormat profile : Base Media\nCodec ID : isom\nFile size : 2.09 GiB\nDuration : 1h 52mn\nOverall bit rate : 2 671 Kbps\nMovie name : Middle.Men.2009.LIMITED.720p.BRRip.x264.Feel-Free\n\n\nVideo\nFormat settings, CABAC : Yes\nFormat settings, ReFrames : 4 frames\nFormat settings, GOP : M=4, N=16\nCodec ID : avc1\nCodec ID/Info : Advanced Video Coding\nDuration : 1h 52mn\nBit rate mode : Variable\nBit rate : 2 300 Kbps\nWidth : 1 280 pixels\nHeight : 528 pixels\nDisplay aspect ratio : 2.40:1\nFrame rate mode : Constant\nFrame rate : 23.976 fps\nColor space : YUV\nChroma subsampling : 4:2:0\nBit depth : 8 bits\nScan type : Progressive\nBits/(Pixel*Frame) : 0.142\nStream size : 1.79 GiB (85%)\nWriting library : x264\n\nAudio\nID : 2\nFormat : AAC\nFormat/Info : Advanced Audio Codec\nFormat version : Version 4\nFormat profile : LC\nCodec ID : 40\nDuration : 1h 52mn\nBit rate mode : Variable\nBit rate : 384 Kbps\nChannel(s) : 6 channels\nChannel positions : Front: L C R, Side: L R, LFE\nSampling rate : 48.0 KHz\nStream size : 308 MiB (14%)\n\n\n\nPlot:\nChronicles Jack Harris, one of the pioneers of internet commerce, as he wrestles with his morals and struggles not to drown in a sea of conmen, mobsters, drug addicts, and pornstars.\n\n &lt;a href=&quot;\nhttp://shareimage.org/images/m7fbyedcjpowph9y5yh4.png&quot; rel=&quot;nofollow&quot; target=&quot;_NEW&quot;&gt;\nhttp://shareimage.org/images/m7fbyedcjpowph9y5yh4.png&lt;/a&gt;\n &lt;a href=&quot;\nhttp://shareimage.org/images/g9qe8odfxptbqugu8lo9.png&quot; rel=&quot;nofollow&quot; target=&quot;_NEW&quot;&gt;\nhttp://shareimage.org/images/g9qe8odfxptbqugu8lo9.png&lt;/a&gt;\n &lt;a href=&quot;\nhttp://shareimage.org/images/6d3gfv3zt0wixtgalmc.png&quot; rel=&quot;nofollow&quot; target=&quot;_NEW&quot;&gt;\nhttp://shareimage.org/images/6d3gfv3zt0wixtgalmc.png&lt;/a&gt;\n &lt;a href=&quot;\nhttp://shareimage.org/images/3gwyyme62gdq96rz6l6r.png&quot; rel=&quot;nofollow&quot; target=&quot;_NEW&quot;&gt;\nhttp://shareimage.org/images/3gwyyme62gdq96rz6l6r.png&lt;/a&gt;\n &lt;a href=&quot;\nhttp://shareimage.org/images/cc1vugqas80csxf7baqt.png&quot; rel=&quot;nofollow&quot; target=&quot;_NEW&quot;&gt;\nhttp://shareimage.org/images/cc1vugqas80csxf7baqt.png&lt;/a&gt;","torrent":{"xt":"urn:btih:9a491c3690d684888b712ca0f6db47447cbc057e","amp;dn":"Middle.Men.2009.LIMITED.720p.BRRip.x264.Feel-Free","amp;tr":["udp%3A%2F%2Ftracker.openbittorrent.com%3A80","udp%3A%2F%2Fopen.demonii.com%3A1337","udp%3A%2F%2Ftracker.coppersurfer.tk%3A6969","udp%3A%2F%2Fexodus.desync.com%3A6969"],"infoHash":"9a491c3690d684888b712ca0f6db47447cbc057e","infoHashBuffer":{"type":"Buffer","data":[154,73,28,54,144,214,132,136,139,113,44,160,246,219,71,68,124,188,5,126]},"announce":[],"urlList":[]}}